
<svg xmlns="http://www.w3.org/2000/svg"
     xmlns:xlink="http://www.w3.org/1999/xlink" version="1.1" width="576"
     height="398" style="background-color:white">
    <defs/>
    <g transform=" scale(1) translate(-29.333332061767578,-56)">
        <rect x="399" y="359" width="2" height="2" fill="#000000" stroke="none"
              pointer-events="none"/>
        <rect x="439" y="329" width="2" height="2" fill="#000000" stroke="none"
              pointer-events="none"/>
        <rect x="439" y="389" width="2" height="2" fill="#000000" stroke="none"
              pointer-events="none"/>
        <path d="M 401 360 L 424 360" fill="none" stroke="#000000"
              stroke-width="2" stroke-linecap="square" stroke-miterlimit="10"
              pointer-events="none"/>
        <path d="M 425 365 L 440 375" fill="none" stroke="#000000"
              stroke-width="2" stroke-linejoin="round" stroke-linecap="round"
              stroke-miterlimit="10" pointer-events="none"/>
        <path d="M 425 355 L 440 345" fill="none" stroke="#000000"
              stroke-width="2" stroke-linejoin="round" stroke-linecap="round"
              stroke-miterlimit="10" pointer-events="none"/>
        <path d="M 440 331 L 440 344" fill="none" stroke="#000000"
              stroke-width="2" stroke-linecap="square" stroke-miterlimit="10"
              pointer-events="none"/>
        <path d="M 440 376 L 440 389" fill="none" stroke="#000000"
              stroke-width="2" stroke-linecap="square" stroke-miterlimit="10"
              pointer-events="none"/>
        <path d="M 425 343 L 425 377" fill="none" stroke="#000000"
              stroke-width="2" stroke-linejoin="round" stroke-linecap="round"
              stroke-miterlimit="10" pointer-events="none"/>
        <path d="M 432.16 373.56 L 439.7 374.61 L 435.26 368.42 Z"
              fill="#000000" stroke="#000000" stroke-linejoin="round"
              stroke-linecap="round" stroke-miterlimit="10"
              pointer-events="none"/>
        <rect x="383" y="330" width="17" height="13" fill-opacity="0"
              fill="#dae2f2" stroke="none" pointer-events="none"/>
        <g fill="#000000" font-family="Arial,Helvetica" font-weight="bold"
           text-anchor="middle" font-size="12px">
            <text x="391.5" y="341.5">
                Q1
            </text>
        </g>
        <rect x="364" y="346" width="31" height="13" fill-opacity="0"
              fill="#dae2f2" stroke="none" pointer-events="none"/>
        <g fill="#000000" font-family="Arial,Helvetica" font-weight="bold"
           text-anchor="middle" font-size="12px">
            <text x="379.5" y="357.5">
                2n222
            </text>
        </g>
        <rect x="559" y="229" width="2" height="2" fill="#000000" stroke="none"
              pointer-events="none"/>
        <rect x="499" y="229" width="2" height="2" fill="#000000" stroke="none"
              pointer-events="none"/>
        <rect x="499" y="279" width="2" height="2" fill="#000000" stroke="none"
              pointer-events="none"/>
        <rect x="499" y="249" width="2" height="2" fill="#000000" stroke="none"
              pointer-events="none"/>
        <ellipse cx="547.5" cy="230" rx="2" ry="2" fill="transparent"
                 stroke="#000000" stroke-width="2" pointer-events="none"/>
        <ellipse cx="512.5" cy="230" rx="2" ry="2" fill="transparent"
                 stroke="#000000" stroke-width="2" pointer-events="none"/>
        <path d="M 550.5 230 L 559 230" fill="none" stroke="#000000"
              stroke-width="2" stroke-linecap="square" stroke-miterlimit="10"
              pointer-events="none"/>
        <path d="M 501 230 L 509.5 230" fill="none" stroke="#000000"
              stroke-width="2" stroke-linecap="square" stroke-miterlimit="10"
              pointer-events="none"/>
        <path d="M 528.74 226.47 L 528.74 228.47" fill="none" stroke="#000000"
              stroke-linecap="square" stroke-miterlimit="10"
              pointer-events="none"/>
        <path d="M 528.74 230.47 L 528.74 232.47" fill="none" stroke="#000000"
              stroke-linecap="square" stroke-miterlimit="10"
              pointer-events="none"/>
        <path d="M 528.74 234.47 L 528.74 236.47" fill="none" stroke="#000000"
              stroke-linecap="square" stroke-miterlimit="10"
              pointer-events="none"/>
        <path d="M 528.74 238.47 L 528.74 240.47" fill="none" stroke="#000000"
              stroke-linecap="square" stroke-miterlimit="10"
              pointer-events="none"/>
        <path d="M 535 250 C 533.93 250 532.93 250.57 532.4 251.5 C 531.86 252.43 531.86 253.58 532.4 254.5 C 532.94 255.43 533.93 256 535.01 256"
              fill="none" stroke="#000000" stroke-width="2.38"
              stroke-linejoin="round" stroke-linecap="round"
              stroke-miterlimit="10" pointer-events="none"/>
        <path d="M 535 262 C 533.93 262 532.93 262.57 532.4 263.5 C 531.86 264.43 531.86 265.58 532.4 266.5 C 532.94 267.43 533.93 268 535.01 268"
              fill="none" stroke="#000000" stroke-width="2.38"
              stroke-linejoin="round" stroke-linecap="round"
              stroke-miterlimit="10" pointer-events="none"/>
        <path d="M 534 245 L 534 284 L 523 284 L 523 245 Z" fill="#ffffff"
              stroke="#000000" stroke-width="2" stroke-linejoin="round"
              stroke-linecap="round" stroke-miterlimit="10"
              pointer-events="none"/>
        <path d="M 535 274 C 533.93 274 532.93 274.57 532.4 275.5 C 531.86 276.43 531.86 277.58 532.4 278.5 C 532.94 279.43 533.93 280 535.01 280"
              fill="none" stroke="#000000" stroke-width="2.38"
              stroke-linejoin="round" stroke-linecap="round"
              stroke-miterlimit="10" pointer-events="none"/>
        <path d="M 522 268 C 523.07 268 524.07 268.57 524.6 269.5 C 525.14 270.43 525.14 271.58 524.6 272.5 C 524.06 273.43 523.07 274 521.99 274"
              fill="none" stroke="#000000" stroke-width="2.38"
              stroke-linejoin="round" stroke-linecap="round"
              stroke-miterlimit="10" pointer-events="none"/>
        <path d="M 522 256 C 523.07 256 524.07 256.57 524.6 257.5 C 525.14 258.43 525.14 259.58 524.6 260.5 C 524.06 261.43 523.07 262 521.99 262"
              fill="none" stroke="#000000" stroke-width="2.38"
              stroke-linejoin="round" stroke-linecap="round"
              stroke-miterlimit="10" pointer-events="none"/>
        <path d="M 522 256 L 535 256" fill="none" stroke="#000000"
              stroke-width="2.19" stroke-linejoin="round" stroke-linecap="round"
              stroke-miterlimit="10" pointer-events="none"/>
        <path d="M 522 268 L 535 268" fill="none" stroke="#000000"
              stroke-width="2.19" stroke-linejoin="round" stroke-linecap="round"
              stroke-miterlimit="10" pointer-events="none"/>
        <path d="M 522 280 L 535 280" fill="none" stroke="#000000"
              stroke-width="2.19" stroke-linejoin="round" stroke-linecap="round"
              stroke-miterlimit="10" pointer-events="none"/>
        <path d="M 501 280 L 521 280" fill="none" stroke="#000000"
              stroke-width="2" stroke-linecap="square" stroke-miterlimit="10"
              pointer-events="none"/>
        <path d="M 501 250 L 521 250" fill="none" stroke="#000000"
              stroke-width="2" stroke-linecap="square" stroke-miterlimit="10"
              pointer-events="none"/>
        <g fill="#000000" font-family="Arial,Helvetica" text-anchor="middle"
           font-size="12px">
            <text x="505" y="247.24">
                +
            </text>
        </g>
        <g fill="#000000" font-family="Arial,Helvetica" text-anchor="middle"
           font-size="14px">
            <text x="504.53" y="275.98">
                -
            </text>
        </g>
        <path d="M 508.2 261.04 C 519.05 261.04 516.09 261.04 516.09 261.04"
              fill="none" stroke="#000000" stroke-linecap="round"
              stroke-miterlimit="10" pointer-events="none"/>
        <path d="M 512.07 261.18 C 512.07 261.18 512.07 261.18 508.2 268.71 C 515.95 268.71 515.95 268.71 515.95 268.71 Z"
              fill="#000000" stroke="#000000" stroke-linejoin="round"
              stroke-linecap="round" stroke-miterlimit="10"
              pointer-events="none"/>
        <rect x="511.78" y="249.79" width="0.72" height="30.42" fill="#000000"
              stroke="#000000" pointer-events="none"/>
        <ellipse cx="512.1" cy="279.91" rx="1.3333333" ry="1.3333333"
                 fill="transparent" stroke="#000000" stroke-width="1.33"
                 pointer-events="none"/>
        <ellipse cx="512.1" cy="250.24" rx="1.3333333" ry="1.3333333"
                 fill="transparent" stroke="#000000" stroke-width="1.33"
                 pointer-events="none"/>
        <path d="M 514.23 228.94 L 534.54 221.09" fill="none" stroke="#000000"
              stroke-width="1.5" stroke-linecap="round" stroke-miterlimit="10"
              pointer-events="none"/>
        <path d="M 534.31 224.21 L 532.13 219 L 542.22 217.86 Z" fill="#000000"
              stroke="#000000" stroke-linejoin="round" stroke-linecap="round"
              stroke-miterlimit="10" pointer-events="none"/>
        <rect x="458" y="210" width="42" height="16" fill-opacity="0"
              fill="#dae2f2" stroke="none" pointer-events="none"/>
        <g fill="#000000" font-family="Arial,Helvetica" font-weight="bold"
           text-anchor="middle" font-size="12px">
            <text x="479" y="223">
                RELAY
            </text>
        </g>
        <rect x="160" y="170" width="80" height="100" fill="#6ccefb"
              stroke="#000" stroke-width="2.4" pointer-events="none"/>
        <path d="M 240 184 L 240 184" fill="none" stroke="#000"
              stroke-width="1.6" stroke-miterlimit="10" pointer-events="none"/>
        <path d="M 240 198 L 240 198" fill="none" stroke="#000"
              stroke-width="1.6" stroke-miterlimit="10" pointer-events="none"/>
        <path d="M 240 212 L 240 212" fill="none" stroke="#000"
              stroke-width="1.6" stroke-miterlimit="10" pointer-events="none"/>
        <path d="M 240 226 L 240 226" fill="none" stroke="#000"
              stroke-width="1.6" stroke-miterlimit="10" pointer-events="none"/>
        <path d="M 240 240 L 240 240" fill="none" stroke="#000"
              stroke-width="1.6" stroke-miterlimit="10" pointer-events="none"/>
        <path d="M 240 254 L 240 254" fill="none" stroke="#000"
              stroke-width="1.6" stroke-miterlimit="10" pointer-events="none"/>
        <path d="M 228.8 270 L 228.8 270" fill="none" stroke="#000"
              stroke-width="1.6" stroke-miterlimit="10" pointer-events="none"/>
        <path d="M 217.6 270 L 217.6 270" fill="none" stroke="#000"
              stroke-width="1.6" stroke-miterlimit="10" pointer-events="none"/>
        <path d="M 206.4 270 L 206.4 270" fill="none" stroke="#000"
              stroke-width="1.6" stroke-miterlimit="10" pointer-events="none"/>
        <path d="M 195.2 270 L 195.2 270" fill="none" stroke="#000"
              stroke-width="1.6" stroke-miterlimit="10" pointer-events="none"/>
        <path d="M 184 270 L 184 270" fill="none" stroke="#000"
              stroke-width="1.6" stroke-miterlimit="10" pointer-events="none"/>
        <path d="M 172.8 270 L 172.8 270" fill="none" stroke="#000"
              stroke-width="1.6" stroke-miterlimit="10" pointer-events="none"/>
        <path d="M 160 256 L 160 256" fill="none" stroke="#000"
              stroke-width="1.6" stroke-miterlimit="10" pointer-events="none"/>
        <path d="M 160 242 L 160 242" fill="none" stroke="#000"
              stroke-width="1.6" stroke-miterlimit="10" pointer-events="none"/>
        <path d="M 160 228 L 160 228" fill="none" stroke="#000"
              stroke-width="1.6" stroke-miterlimit="10" pointer-events="none"/>
        <path d="M 160 214 L 160 214" fill="none" stroke="#000"
              stroke-width="1.6" stroke-miterlimit="10" pointer-events="none"/>
        <path d="M 160 200 L 160 200" fill="none" stroke="#000"
              stroke-width="1.6" stroke-miterlimit="10" pointer-events="none"/>
        <path d="M 160 186 L 160 186" fill="none" stroke="#000"
              stroke-width="1.6" stroke-miterlimit="10" pointer-events="none"/>
        <path d="M 171.2 170 L 171.2 170" fill="none" stroke="#000"
              stroke-width="1.6" stroke-miterlimit="10" pointer-events="none"/>
        <path d="M 182.4 170 L 182.4 170" fill="none" stroke="#000"
              stroke-width="1.6" stroke-miterlimit="10" pointer-events="none"/>
        <path d="M 193.6 170 L 193.6 170" fill="none" stroke="#000"
              stroke-width="1.6" stroke-miterlimit="10" pointer-events="none"/>
        <path d="M 204.8 170 L 204.8 170" fill="none" stroke="#000"
              stroke-width="1.6" stroke-miterlimit="10" pointer-events="none"/>
        <path d="M 216 170 L 216 170" fill="none" stroke="#000"
              stroke-width="1.6" stroke-miterlimit="10" pointer-events="none"/>
        <path d="M 227.2 170 L 227.2 170" fill="none" stroke="#000"
              stroke-width="1.6" stroke-miterlimit="10" pointer-events="none"/>
        <rect x="135" y="170" width="25" height="13" fill-opacity="0"
              fill="#dae2f2" stroke="none" pointer-events="none"/>
        <g fill="#000000" font-family="Arial,Helvetica" font-weight="bold"
           text-anchor="middle" font-size="12px">
            <text x="147.5" y="181.5">
                EB1
            </text>
        </g>
        <rect x="105" y="186" width="46" height="13" fill-opacity="0"
              fill="#dae2f2" stroke="none" pointer-events="none"/>
        <g fill="#000000" font-family="Arial,Helvetica" font-weight="bold"
           text-anchor="middle" font-size="12px">
            <text x="128" y="197.5">
                ESP8266
            </text>
        </g>
        <path d="M 240 250 L 280 250 Q 290 250 290 260 L 290 360" fill="none"
              stroke="#000000" stroke-width="2" stroke-miterlimit="10"
              pointer-events="none"/>
        <g fill="#000000" font-family="Arial,Helvetica" text-anchor="middle"
           font-size="11px">
            <rect fill="#FFFFFF" stroke="none" x="224" y="234" width="57"
                  height="14" stroke-width="0"/>
            <text x="252" y="244.5">
                Pin 14 3.3v
            </text>
        </g>
        <rect x="319" y="329" width="2" height="2" fill="#000000" stroke="none"
              transform="rotate(270,320,360)" pointer-events="none"/>
        <rect x="319" y="389" width="2" height="2" fill="#000000" stroke="none"
              transform="rotate(270,320,360)" pointer-events="none"/>
        <path d="M 320 342 L 327 345 L 320 348" fill="none" stroke="#000000"
              stroke-width="2" stroke-linejoin="round" stroke-linecap="round"
              stroke-miterlimit="10" transform="rotate(270,320,360)"
              pointer-events="none"/>
        <path d="M 320 348 L 313 351 L 320 354" fill="none" stroke="#000000"
              stroke-width="2" stroke-linejoin="round" stroke-linecap="round"
              stroke-miterlimit="10" transform="rotate(270,320,360)"
              pointer-events="none"/>
        <path d="M 320 354 L 327 357 L 320 360" fill="none" stroke="#000000"
              stroke-width="2" stroke-linejoin="round" stroke-linecap="round"
              stroke-miterlimit="10" transform="rotate(270,320,360)"
              pointer-events="none"/>
        <path d="M 320 360 L 313 363 L 320 366" fill="none" stroke="#000000"
              stroke-width="2" stroke-linejoin="round" stroke-linecap="round"
              stroke-miterlimit="10" transform="rotate(270,320,360)"
              pointer-events="none"/>
        <path d="M 320 366 L 327 369 L 320 372" fill="none" stroke="#000000"
              stroke-width="2" stroke-linejoin="round" stroke-linecap="round"
              stroke-miterlimit="10" transform="rotate(270,320,360)"
              pointer-events="none"/>
        <path d="M 320 372 L 313 375 L 320 378" fill="none" stroke="#000000"
              stroke-width="2" stroke-linejoin="round" stroke-linecap="round"
              stroke-miterlimit="10" transform="rotate(270,320,360)"
              pointer-events="none"/>
        <path d="M 320 331 L 320 341" fill="#000000" stroke="#000000"
              stroke-width="2" stroke-linecap="square" stroke-miterlimit="10"
              transform="rotate(270,320,360)" pointer-events="none"/>
        <path d="M 320 379 L 320 389" fill="#000000" stroke="#000000"
              stroke-width="2" stroke-linecap="square" stroke-miterlimit="10"
              transform="rotate(270,320,360)" pointer-events="none"/>
        <rect x="290" y="370" width="17" height="13" fill-opacity="0"
              fill="#dae2f2" stroke="none" pointer-events="none"/>
        <g fill="#000000" font-family="Arial,Helvetica" font-weight="bold"
           text-anchor="middle" font-size="12px">
            <text x="298.5" y="381.5">
                R1
            </text>
        </g>
        <rect x="261" y="386" width="51" height="13" fill-opacity="0"
              fill="#dae2f2" stroke="none" pointer-events="none"/>
        <g fill="#000000" font-family="Arial,Helvetica" font-weight="bold"
           text-anchor="middle" font-size="12px">
            <text x="286.5" y="397.5">
                500 ohm
            </text>
        </g>
        <path d="M 350 360 L 400 360" fill="none" stroke="#000000"
              stroke-width="2" stroke-miterlimit="10" pointer-events="none"/>
        <rect x="439" y="409" width="2" height="2" fill="#000000" stroke="none"
              pointer-events="none"/>
        <path d="M 429 431 C 451.02 431 451.02 431 451.02 431" fill="none"
              stroke="#000000" stroke-width="2" stroke-linecap="round"
              stroke-miterlimit="10" pointer-events="none"/>
        <path d="M 433 437 C 442.57 437 447 437 447 437" fill="none"
              stroke="#000000" stroke-width="2" stroke-linecap="round"
              stroke-miterlimit="10" pointer-events="none"/>
        <path d="M 437 443 C 440.12 443 443 443 443 443" fill="none"
              stroke="#000000" stroke-width="2" stroke-linecap="round"
              stroke-miterlimit="10" pointer-events="none"/>
        <path d="M 440 411 L 440 429" fill="#000000" stroke="#000000"
              stroke-width="2" stroke-linecap="square" stroke-miterlimit="10"
              pointer-events="none"/>
        <path d="M 440 390 L 440 410" fill="none" stroke="#000000"
              stroke-width="2" stroke-miterlimit="10" pointer-events="none"/>
        <path d="M 500 280 L 480 280 L 480 410 L 442 410" fill="none"
              stroke="#000000" stroke-width="2" stroke-miterlimit="10"
              pointer-events="none"/>
        <ellipse cx="440" cy="410" rx="2" ry="2" fill="#000000" stroke="#000000"
                 stroke-width="2" pointer-events="none"/>
        <path d="M 500 250 L 440 250 L 440 330" fill="none" stroke="#000000"
              stroke-width="2" stroke-miterlimit="10" pointer-events="none"/>
        <rect x="470" y="130" width="130" height="50" fill="#efd3d2"
              stroke="#000000" pointer-events="none"/>
        <g fill="#000" font-family="Arial,Helvetica" text-anchor="middle"
           font-size="12px">
            <text x="535" y="160">
                Garage switch
            </text>
        </g>
        <path d="M 500 230 L 500 220 Q 500 210 500 200 L 500 180" fill="none"
              stroke="#000000" stroke-width="2" stroke-miterlimit="10"
              pointer-events="none"/>
        <path d="M 560 230 L 565 230 Q 570 230 570 220 L 570 180" fill="none"
              stroke="#000000" stroke-width="2" stroke-miterlimit="10"
              pointer-events="none"/>
        <rect x="289" y="179" width="2" height="2" fill="#000000" stroke="none"
              pointer-events="none"/>
        <path d="M 279 201 C 301.02 201 301.02 201 301.02 201" fill="none"
              stroke="#000000" stroke-width="2" stroke-linecap="round"
              stroke-miterlimit="10" pointer-events="none"/>
        <path d="M 283 207 C 292.57 207 297 207 297 207" fill="none"
              stroke="#000000" stroke-width="2" stroke-linecap="round"
              stroke-miterlimit="10" pointer-events="none"/>
        <path d="M 287 213 C 290.12 213 293 213 293 213" fill="none"
              stroke="#000000" stroke-width="2" stroke-linecap="round"
              stroke-miterlimit="10" pointer-events="none"/>
        <path d="M 290 181 L 290 199" fill="#000000" stroke="#000000"
              stroke-width="2" stroke-linecap="square" stroke-miterlimit="10"
              pointer-events="none"/>
        <rect x="89" y="219" width="2" height="2" fill="#000000" stroke="none"
              pointer-events="none"/>
        <rect x="89" y="289" width="2" height="2" fill="#000000" stroke="none"
              pointer-events="none"/>
        <ellipse cx="90" cy="254.99" rx="24.994505" ry="24.994505"
                 fill="#ffffff" stroke="#000000" stroke-width="2"
                 pointer-events="none"/>
        <path d="M 72 252.53 C 108 252.53 108 252.53 108 252.53" fill="none"
              stroke="#000000" stroke-width="2" stroke-linecap="round"
              stroke-miterlimit="10" pointer-events="none"/>
        <path d="M 81 260 C 99 260 99 260 99 260" fill="none" stroke="#000000"
              stroke-width="2" stroke-linecap="round" stroke-miterlimit="10"
              pointer-events="none"/>
        <path d="M 90 221 L 90 251" fill="none" stroke="#000000"
              stroke-width="2" stroke-linecap="square" stroke-miterlimit="10"
              pointer-events="none"/>
        <path d="M 90 261 L 90 289" fill="none" stroke="#000000"
              stroke-width="2" stroke-linecap="square" stroke-miterlimit="10"
              pointer-events="none"/>
        <path d="M 75 243.25 C 85 243.25 85 243.25 85 243.25" fill="none"
              stroke="#000000" stroke-width="1.5" stroke-linecap="round"
              stroke-miterlimit="10" pointer-events="none"/>
        <path d="M 80 238.25 C 80 248.25 80 248.25 80 248.25" fill="none"
              stroke="#000000" stroke-width="1.5" stroke-linecap="round"
              stroke-miterlimit="10" pointer-events="none"/>
        <rect x="36" y="220" width="24" height="13" fill-opacity="0"
              fill="#dae2f2" stroke="none" pointer-events="none"/>
        <g fill="#000000" font-family="Arial,Helvetica" font-weight="bold"
           text-anchor="middle" font-size="12px">
            <text x="48" y="231.5">
                BT1
            </text>
        </g>
        <rect x="35" y="236" width="21" height="13" fill-opacity="0"
              fill="#dae2f2" stroke="none" pointer-events="none"/>
        <g fill="#000000" font-family="Arial,Helvetica" font-weight="bold"
           text-anchor="middle" font-size="12px">
            <text x="45.5" y="247.5">
                3.3v
            </text>
        </g>
        <rect x="89" y="319" width="2" height="2" fill="#000000" stroke="none"
              pointer-events="none"/>
        <path d="M 79 341 C 101.02 341 101.02 341 101.02 341" fill="none"
              stroke="#000000" stroke-width="2" stroke-linecap="round"
              stroke-miterlimit="10" pointer-events="none"/>
        <path d="M 83 347 C 92.57 347 97 347 97 347" fill="none"
              stroke="#000000" stroke-width="2" stroke-linecap="round"
              stroke-miterlimit="10" pointer-events="none"/>
        <path d="M 87 353 C 90.12 353 93 353 93 353" fill="none"
              stroke="#000000" stroke-width="2" stroke-linecap="round"
              stroke-miterlimit="10" pointer-events="none"/>
        <path d="M 90 321 L 90 339" fill="#000000" stroke="#000000"
              stroke-width="2" stroke-linecap="square" stroke-miterlimit="10"
              pointer-events="none"/>
        <path d="M 90 290 L 90 320" fill="none" stroke="#000000"
              stroke-width="2" stroke-miterlimit="10" pointer-events="none"/>
        <path d="M 90 220 L 160 220" fill="none" stroke="#000000"
              stroke-width="2" stroke-miterlimit="10" pointer-events="none"/>
        <rect x="309" y="99" width="2" height="2" fill="#000000" stroke="none"
              pointer-events="none"/>
        <rect x="309" y="119" width="2" height="2" fill="#000000" stroke="none"
              pointer-events="none"/>
        <rect x="309" y="149" width="2" height="2" fill="#000000" stroke="none"
              pointer-events="none"/>
        <rect x="330" y="70" width="60" height="100" fill="#ffffff"
              stroke="black" stroke-width="2" pointer-events="none"/>
        <g fill="#000000" font-family="Arial,Helvetica" font-size="11px">
            <text x="337" y="104">
                Vcc
            </text>
        </g>
        <g fill="#000000" font-family="Arial,Helvetica" font-size="11px"/>
        <path d="M 311 100 L 330 100" fill="none" stroke="black"
              stroke-width="2" stroke-linejoin="round" stroke-linecap="round"
              stroke-miterlimit="10" pointer-events="none"/>
        <g fill="#000000" font-family="Arial,Helvetica" font-size="11px">
            <text x="337" y="124">
                Data
            </text>
        </g>
        <g fill="#000000" font-family="Arial,Helvetica" font-size="11px"/>
        <path d="M 311 120 L 330 120" fill="none" stroke="black"
              stroke-width="2" stroke-linejoin="round" stroke-linecap="round"
              stroke-miterlimit="10" pointer-events="none"/>
        <g fill="#000000" font-family="Arial,Helvetica" font-size="11px">
            <text x="337" y="154">
                GND
            </text>
        </g>
        <g fill="#000000" font-family="Arial,Helvetica" font-size="11px"/>
        <path d="M 311 150 L 330 150" fill="none" stroke="black"
              stroke-width="2" stroke-linejoin="round" stroke-linecap="round"
              stroke-miterlimit="10" pointer-events="none"/>
        <rect x="293" y="60" width="17" height="13" fill-opacity="0"
              fill="#dae2f2" stroke="none" pointer-events="none"/>
        <g fill="#000000" font-family="Arial,Helvetica" font-weight="bold"
           text-anchor="middle" font-size="12px">
            <text x="301.5" y="71.5">
                D1
            </text>
        </g>
        <path d="M 290 180 L 290 150 L 310 150" fill="none" stroke="#000000"
              stroke-width="2" stroke-miterlimit="10" pointer-events="none"/>
        <path d="M 310 120 L 210 120 Q 200 120 200 130 L 200 170" fill="none"
              stroke="#000000" stroke-width="2" stroke-miterlimit="10"
              pointer-events="none"/>
        <g fill="#000000" font-family="Arial,Helvetica" text-anchor="middle"
           font-size="11px">
            <rect fill="#FFFFFF" stroke="none" x="204" y="144" width="33"
                  height="14" stroke-width="0"/>
            <text x="220" y="154.5">
                Pin 13
            </text>
        </g>
        <path d="M 310 100 L 90 100 L 90 218" fill="none" stroke="#000000"
              stroke-width="2" stroke-miterlimit="10" pointer-events="none"/>
        <ellipse cx="90" cy="220" rx="2" ry="2" fill="#000000" stroke="#000000"
                 stroke-width="2" pointer-events="none"/>
    </g>
</svg>